<svg width="1440" height="532" viewBox="0 0 1440 532" fill="none" xmlns="http://www.w3.org/2000/svg">
<path opacity="0.4" d="M259.386 875.056L127.209 998.772M259.386 875.056L405.581 791.935M259.386 875.056L423.605 849.926M259.386 875.056L293.431 645.022M259.386 875.056L182.282 862.491M259.386 875.056L445.635 1085.76M127.209 998.772L105.179 849.926M127.209 998.772L-16.9839 965.91M127.209 998.772L445.635 1085.76M105.179 849.926L182.282 862.491M105.179 849.926L293.431 645.022M105.179 849.926V625.692M105.179 849.926L-29 688.516M105.179 849.926L-16.9839 965.91M405.581 791.935L423.605 849.926M405.581 791.935L293.431 645.022M405.581 791.935L477.677 766.805M423.605 849.926L477.677 766.805M423.605 849.926L445.635 1085.76M423.605 849.926L550.775 872.157M293.431 645.022L477.677 766.805M293.431 645.022L485.688 563.834M293.431 645.022L182.282 862.491M293.431 645.022L389.56 492.311M293.431 645.022L199.305 635.357M293.431 645.022V532.905M477.677 766.805L485.688 563.834M477.677 766.805L677.945 791.451M477.677 766.805L677.945 688.516M477.677 766.805L577.811 624.725M477.677 766.805L577.811 830.596M477.677 766.805L550.775 872.157M677.945 894.387L445.635 1085.76M677.945 894.387L886.224 919.516M677.945 894.387L711.991 998.772M677.945 894.387V791.451M677.945 894.387L796.103 851.859M677.945 894.387L577.811 830.596M677.945 894.387L550.775 872.157M445.635 1085.76L711.991 998.772M445.635 1085.76L550.775 872.157M886.224 919.516L711.991 998.772M886.224 919.516L914.261 809.332M886.224 919.516L1467 998.772M886.224 919.516L1089.5 998.772M886.224 919.516L983 914.6M711.991 998.772H1089.5M677.945 482.645V688.516M677.945 482.645L1089.5 376.327M677.945 482.645L611.857 403.003M677.945 482.645L577.811 624.725M677.945 482.645L774.074 574.707M677.945 482.645L886.224 570.599M677.945 482.645L485.688 451.716M677.945 482.645L581.817 523.239M914.261 809.332L870.202 666.769M914.261 809.332L983 914.6M914.261 809.332L1052.45 856.692M914.261 809.332L996.065 718.635M914.261 809.332L766 733.534M914.261 809.332L796.103 800.392M914.261 809.332L796.103 851.859M485.688 563.834L389.56 492.311M485.688 563.834V451.716M485.688 563.834L581.817 523.239M485.688 563.834L577.811 624.725M677.945 688.516V791.451M677.945 688.516L870.202 666.769M677.945 688.516L577.811 624.725M677.945 688.516L774.074 574.707M677.945 688.516L766 733.534M1062.46 645.022L1089.5 376.327M1062.46 645.022L1250.36 809.332M1062.46 645.022L1278.25 515.507M1062.46 645.022L870.202 666.769M1062.46 645.022L886.224 570.599M1062.46 645.022L996.065 718.635M1062.46 645.022L1122.72 766.805M1062.46 645.022L1316.5 651.092M105.179 625.692L23.0696 304.804M105.179 625.692L-29 688.516M105.179 625.692L199.305 523.239M105.179 625.692L199.305 635.357M1467 998.772L1190.63 904.052M1467 998.772H1089.5M1467 998.772L1250.36 809.332M1467 998.772V654.687M293.431 420.787L23.0696 304.804M293.431 420.787L137.222 215.883M293.431 420.787L611.857 403.003M293.431 420.787L421.677 218.918M293.431 420.787L516.767 310.961M293.431 420.787L389.56 492.311M293.431 420.787L485.688 451.716M293.431 420.787L199.305 523.239M293.431 420.787V532.905M23.0696 304.804L-29 688.516M23.0696 304.804L133.326 218.918M23.0696 304.804L-16.9839 103.766H219.332M-29 688.516L-16.9839 965.91M1190.63 904.052L983 914.6M1190.63 904.052L1052.45 856.692M1190.63 904.052L1122.72 766.805M1190.63 904.052L1250.36 809.332M1089.5 376.327L611.857 403.003M1089.5 376.327L1250.36 161.757M1089.5 376.327L861.691 296.105M1089.5 376.327L1278.25 515.507M1089.5 376.327L1358.68 408.222M1089.5 376.327L886.224 570.599M137.222 215.883H423.605M137.222 215.883L219.332 103.766M137.222 215.883L133.326 218.918M423.605 215.883H633.886M423.605 215.883L421.677 218.918M423.605 215.883L445.5 90M633.886 215.883L611.857 403.003M633.886 215.883L445.5 90M633.886 215.883L861.691 296.105M633.886 215.883L942.123 188.82M633.886 215.883L516.767 310.961M633.886 215.883L722.505 97M611.857 403.003L516.767 310.961M611.857 403.003L861.691 296.105M611.857 403.003L485.688 451.716M421.677 218.918L516.767 310.961M1467 654.687L1250.36 809.332M1467 654.687L1278.25 515.507M1467 654.687L1358.68 408.222M1467 654.687L1437.46 389.375M1467 654.687L1316.5 651.092M1250.36 809.332L1316.5 651.092M1250.36 809.332L1122.72 766.805M1250.36 161.757L942.123 188.82M1250.36 161.757L1056.03 228.931M1250.36 161.757L1358.68 408.222M1250.36 161.757L1437.46 172.873M1250.36 161.757L1243.5 1.5H867M1250.36 161.757L867 1.5M1250.36 161.757L1473 1.5L1437.46 172.873M445.5 90L219.332 103.766M445.5 90L133.326 218.918M445.5 90L722.505 97M861.691 296.105L1056.03 228.931M861.691 296.105L942.123 188.82M942.123 188.82L1056.03 228.931M942.123 188.82L722.505 97M942.123 188.82L867 1.5M1278.25 515.507L1358.68 408.222M1358.68 408.222L1437.46 389.375M1358.68 408.222L1437.46 172.873M722.505 97L867 1.5M722.505 97L712.5 1.5M1437.46 389.375V172.873M677.945 791.451L796.103 800.392M677.945 791.451L766 733.534M677.945 791.451L796.103 851.859M677.945 791.451L577.811 830.596M870.202 666.769L774.074 574.707M870.202 666.769L886.224 570.599M870.202 666.769L766 733.534M577.811 624.725L581.817 523.239M774.074 574.707L886.224 570.599M389.56 492.311L485.688 451.716M199.305 523.239V635.357M199.305 523.239L293.431 532.905M199.305 635.357L293.431 532.905M983 914.6L1052.45 856.692M1052.45 856.692L996.065 718.635M1052.45 856.692L1122.72 766.805M996.065 718.635L1122.72 766.805M766 733.534L796.103 800.392M796.103 800.392V851.859M577.811 830.596L550.775 872.157" stroke="#72757E"/>
</svg>
