<svg width="1440" height="982" viewBox="0 0 1440 982" fill="none" xmlns="http://www.w3.org/2000/svg">
<path opacity="0.4" d="M277.59 772.478L145 983.233M277.59 772.478L418.313 689.336M277.59 772.478L435.663 747.342M277.59 772.478L310.361 542.388M277.59 772.478L203.374 759.91M277.59 772.478L456.867 983.233M145 983.233L129.157 747.342M145 983.233L0 862.233M129.157 747.342L203.374 759.91M129.157 747.342L310.361 542.388M129.157 747.342V523.053M129.157 747.342L0 585.892M129.157 747.342L0 862.233M418.313 689.336L435.663 747.342M418.313 689.336L310.361 542.388M418.313 689.336L487.711 664.2M435.663 747.342L487.711 664.2M435.663 747.342L456.867 983.233M435.663 747.342L558.072 769.578M310.361 542.388L487.711 664.2M310.361 542.388L495.422 461.18M310.361 542.388L203.374 759.91M310.361 542.388L402.892 389.639M310.361 542.388L219.759 532.72M310.361 542.388V430.243M487.711 664.2L495.422 461.18M487.711 664.2L680.482 688.853M487.711 664.2L680.482 585.892M487.711 664.2L584.096 522.086M487.711 664.2L584.096 728.007M487.711 664.2L558.072 769.578M680.482 791.813L456.867 983.233M680.482 791.813C680.482 791.813 802.671 807.133 880.964 816.949M680.482 791.813L723.5 983.233C723.5 983.233 819.47 881.887 880.964 816.949M680.482 791.813V688.853M680.482 791.813L794.217 749.276M680.482 791.813L584.096 728.007M680.482 791.813L558.072 769.578M456.867 983.233L558.072 769.578M880.964 816.949C891.503 773.909 907.952 706.738 907.952 706.738M880.964 816.949C1099.28 847.908 1440 896.224 1440 896.224M880.964 816.949C1003.8 881.887 1195.5 983.233 1195.5 983.233L1440 896.224M880.964 816.949C917.343 815.029 974.118 812.032 974.118 812.032M880.964 816.949L959.5 983.233M680.482 379.972V585.892M680.482 379.972L1076.63 273.628M680.482 379.972L616.868 300.31M680.482 379.972L584.096 522.086M680.482 379.972L773.012 472.056M680.482 379.972L880.964 467.947M680.482 379.972L495.422 349.035M680.482 379.972L587.952 420.576M907.952 706.738L865.542 564.14M907.952 706.738L974.118 812.032M907.952 706.738L1040.96 754.109M907.952 706.738L986.694 616.019M907.952 706.738L765.241 630.921M907.952 706.738L794.217 697.795M907.952 706.738L794.217 749.276M495.422 461.18L402.892 389.639M495.422 461.18V349.035M495.422 461.18L587.952 420.576M495.422 461.18L584.096 522.086M680.482 585.892V688.853M680.482 585.892L865.542 564.14M680.482 585.892L584.096 522.086M680.482 585.892L773.012 472.056M680.482 585.892L765.241 630.921M1050.6 542.388L1076.63 273.628M1050.6 542.388L1231.47 706.738M1050.6 542.388L1258.31 412.842M1050.6 542.388L865.542 564.14M1050.6 542.388L880.964 467.947M1050.6 542.388L986.694 616.019M1050.6 542.388L1108.61 664.2M1050.6 542.388L1295.13 548.459M129.157 523.053L50.1205 202.087M129.157 523.053L0 585.892M129.157 523.053L219.759 420.576M129.157 523.053L219.759 532.72M1440 896.224L1173.98 801.481M1440 896.224L1231.47 706.738M1440 896.224V552.056M310.361 318.099L50.1205 202.087M310.361 318.099L160 113.145M310.361 318.099L616.868 300.31M310.361 318.099L433.807 116.18M310.361 318.099L525.337 208.245M310.361 318.099L402.892 389.639M310.361 318.099L495.422 349.035M310.361 318.099L219.759 420.576M310.361 318.099V430.243M50.1205 202.087L0 585.892M50.1205 202.087L160 113.145M50.1205 202.087L0 1H145M50.1205 202.087L145 1M0 585.892V862.233M0 862.233V983.233M1173.98 801.481L974.118 812.032M1173.98 801.481L1040.96 754.109M1173.98 801.481L1108.61 664.2M1173.98 801.481L1231.47 706.738M1076.63 273.628L616.868 300.31M1076.63 273.628L1231.47 59.0059M1076.63 273.628L857.349 193.386M1076.63 273.628L1258.31 412.842M1076.63 273.628L1335.74 305.531M1076.63 273.628L880.964 467.947M160 113.145H435.663M160 113.145L145 1M160 113.145L456 1M435.663 113.145H638.072M435.663 113.145L433.807 116.18M435.663 113.145L456 1M638.072 113.145L616.868 300.31M638.072 113.145L456 1M638.072 113.145L857.349 193.386M638.072 113.145L934.771 86.0753M638.072 113.145L525.337 208.245M638.072 113.145L725 1M616.868 300.31L525.337 208.245M616.868 300.31L857.349 193.386M616.868 300.31L495.422 349.035M433.807 116.18L525.337 208.245M1440 552.056L1231.47 706.738M1440 552.056L1258.31 412.842M1440 552.056L1335.74 305.531M1440 552.056L1411.57 286.679M1440 552.056L1295.13 548.459M1231.47 706.738L1295.13 548.459M1231.47 706.738L1108.61 664.2M1231.47 59.0059L1044.41 126.196M1231.47 59.0059L1335.74 305.531M1231.47 59.0059L1411.57 70.1236M1231.47 59.0059L1195 1M1231.47 59.0059L978.235 30.0029M456 1H145M456 1H590.5H725M857.349 193.386L1044.41 126.196M857.349 193.386L934.771 86.0753M934.771 86.0753L1044.41 126.196M934.771 86.0753L725 1M1258.31 412.842L1335.74 305.531M1335.74 305.531L1411.57 286.679M1335.74 305.531L1411.57 70.1236M725 1L978.235 30.0029M725 1H960M1411.57 286.679V70.1236M1411.57 286.679L1440 98.2327L1411.57 70.1236M1411.57 70.1236L1195 1M1411.57 70.1236L1440 1H1195M680.482 688.853L794.217 697.795M680.482 688.853L765.241 630.921M680.482 688.853L794.217 749.276M680.482 688.853L584.096 728.007M865.542 564.14L773.012 472.056M865.542 564.14L880.964 467.947M865.542 564.14L765.241 630.921M584.096 522.086L587.952 420.576M773.012 472.056L880.964 467.947M402.892 389.639L495.422 349.035M219.759 420.576V532.72M219.759 420.576L310.361 430.243M219.759 532.72L310.361 430.243M974.118 812.032L1040.96 754.109M1040.96 754.109L986.694 616.019M1040.96 754.109L1108.61 664.2M986.694 616.019L1108.61 664.2M765.241 630.921L794.217 697.795M794.217 697.795V749.276M584.096 728.007L558.072 769.578M1195 1H960M1195 1L978.235 30.0029M978.235 30.0029L960 1" stroke="#72757E"/>
</svg>
